<svg width="20" height="20" viewBox="0 0 20 20" fill="none" xmlns="http://www.w3.org/2000/svg">
<mask id="mask0_280_572" style="mask-type:alpha" maskUnits="userSpaceOnUse" x="0" y="0" width="20" height="20">
<rect width="20" height="20" fill="#D9D9D9"/>
</mask>
<g mask="url(#mask0_280_572)">
<path d="M13.1433 10.8109L12.2075 9.87509C12.3325 9.18496 12.1356 8.56447 11.6169 8.01364C11.0983 7.46294 10.4618 7.25009 9.7075 7.37509L8.77167 6.43926C8.95972 6.35482 9.15257 6.29148 9.35021 6.24926C9.54785 6.20704 9.76417 6.18593 9.99917 6.18593C10.9447 6.18593 11.7474 6.51579 12.4071 7.17551C13.0668 7.83523 13.3967 8.63787 13.3967 9.58343C13.3967 9.81843 13.3756 10.0375 13.3333 10.2405C13.2911 10.4434 13.2278 10.6336 13.1433 10.8109ZM15.794 13.4038L14.8742 12.5418C15.4019 12.139 15.8707 11.698 16.2804 11.2188C16.6901 10.7397 17.0408 10.1945 17.3325 9.58343C16.6381 8.18065 15.6415 7.06607 14.3429 6.23968C13.0443 5.41329 11.5964 5.00009 9.99917 5.00009C9.59639 5.00009 9.20056 5.02787 8.81167 5.08343C8.42278 5.13898 8.04083 5.22232 7.66583 5.33343L6.69479 4.36239C7.22146 4.15294 7.75938 3.99857 8.30854 3.89926C8.85771 3.79982 9.42125 3.75009 9.99917 3.75009C11.9521 3.75009 13.7133 4.28857 15.2827 5.36551C16.8522 6.44245 17.9969 7.84843 18.7171 9.58343C18.4083 10.328 18.0096 11.023 17.5208 11.6684C17.0319 12.3137 16.4563 12.8922 15.794 13.4038ZM16.4671 18.2245L13.0954 14.8782C12.6681 15.0364 12.1944 15.1657 11.6746 15.2661C11.1549 15.3666 10.5964 15.4168 9.99917 15.4168C8.04083 15.4168 6.27965 14.8783 4.71563 13.8013C3.15146 12.7244 2.00667 11.3184 1.28125 9.58343C1.58889 8.84732 1.98632 8.16065 2.47354 7.52343C2.96076 6.88607 3.49708 6.33343 4.0825 5.86551L1.77479 3.53218L2.65313 2.65405L17.3452 17.3461L16.4671 18.2245ZM4.96083 6.74364C4.52056 7.09405 4.09236 7.5153 3.67625 8.00739C3.26014 8.49933 2.92333 9.02468 2.66583 9.58343C3.36028 10.9862 4.35681 12.1008 5.65542 12.9272C6.95403 13.7536 8.40195 14.1668 9.99917 14.1668C10.3785 14.1668 10.7562 14.1347 11.1323 14.0705C11.5083 14.0065 11.8272 13.9403 12.089 13.872L11.0344 12.7918C10.8923 12.8494 10.7278 12.8953 10.5408 12.9295C10.3539 12.9638 10.1733 12.9809 9.99917 12.9809C9.05361 12.9809 8.25097 12.6511 7.59125 11.9913C6.93153 11.3316 6.60167 10.529 6.60167 9.58343C6.60167 9.41468 6.61882 9.23815 6.65313 9.05384C6.68729 8.86954 6.73319 8.701 6.79083 8.54822L4.96083 6.74364Z" fill="#1C1B1F"/>
</g>
</svg>
