<svg width="18" height="13" viewBox="0 0 18 13" fill="none" xmlns="http://www.w3.org/2000/svg">
<path d="M9.00104 9.98083C9.94535 9.98083 10.7474 9.65035 11.4071 8.98938C12.0668 8.3284 12.3967 7.52576 12.3967 6.58146C12.3967 5.63715 12.0662 4.83514 11.4052 4.17542C10.7442 3.51569 9.9416 3.18583 8.99729 3.18583C8.05299 3.18583 7.25097 3.51632 6.59125 4.17729C5.93153 4.83826 5.60167 5.6409 5.60167 6.58521C5.60167 7.52951 5.93215 8.33153 6.59313 8.99125C7.2541 9.65097 8.05674 9.98083 9.00104 9.98083ZM8.99917 8.83333C8.37417 8.83333 7.84292 8.61458 7.40542 8.17708C6.96792 7.73958 6.74917 7.20833 6.74917 6.58333C6.74917 5.95833 6.96792 5.42708 7.40542 4.98958C7.84292 4.55208 8.37417 4.33333 8.99917 4.33333C9.62417 4.33333 10.1554 4.55208 10.5929 4.98958C11.0304 5.42708 11.2492 5.95833 11.2492 6.58333C11.2492 7.20833 11.0304 7.73958 10.5929 8.17708C10.1554 8.61458 9.62417 8.83333 8.99917 8.83333ZM9.00021 12.4167C7.08396 12.4167 5.33792 11.8881 3.76208 10.8308C2.18625 9.77375 1.02597 8.35792 0.28125 6.58333C1.02597 4.80875 2.18583 3.39292 3.76083 2.33583C5.33597 1.27861 7.08174 0.75 8.99813 0.75C10.9144 0.75 12.6604 1.27861 14.2363 2.33583C15.8121 3.39292 16.9724 4.80875 17.7171 6.58333C16.9724 8.35792 15.8125 9.77375 14.2375 10.8308C12.6624 11.8881 10.9166 12.4167 9.00021 12.4167ZM8.99917 11.1667C10.5686 11.1667 12.0096 10.7535 13.3221 9.92708C14.6346 9.10069 15.6381 7.98611 16.3325 6.58333C15.6381 5.18056 14.6346 4.06597 13.3221 3.23958C12.0096 2.41319 10.5686 2 8.99917 2C7.42972 2 5.98875 2.41319 4.67625 3.23958C3.36375 4.06597 2.36028 5.18056 1.66583 6.58333C2.36028 7.98611 3.36375 9.10069 4.67625 9.92708C5.98875 10.7535 7.42972 11.1667 8.99917 11.1667Z" fill="#1C1B1F"/>
</svg>
